<?xml version="1.0" standalone="no"?>
<!DOCTYPE svg PUBLIC "-//W3C//DTD SVG 20010904//EN" "http://www.w3.org/TR/2001/REC-SVG-20010904/DTD/svg10.dtd">
<svg version="1.0" xmlns="http://www.w3.org/2000/svg" width="512px" height="512px" viewBox="0 0 512 512" preserveAspectRatio="xMidYMid meet">
<g transform="translate(0.000000,512.000000) scale(0.100000,-0.100000)" fill="#76B900" stroke="none">
	<path d="M1358 4320 l-187 -101 69 -197 c133 -385 529 -1509 584 -1662 62 -169 73 -191 113 -217 25 -17 70 -18 608 -18 645 0 620 -2 663 67 11 18 176 483 367 1032 266 769 343 1001 333 1008 -7 4 -86 46 -175 93 l-162 85 -1013 6 -1013 5 -187 -101z"/>
	<path d="M953 4131 c-126 -70 -238 -176 -278 -263 -41 -91 -90 -365 -195 -1093 -65 -455 -74 -564 -75 -920 0 -209 5 -356 13 -425 28 -216 73 -392 134 -515 63 -128 100 -145 398 -190 141 -21 156 -21 175 -7 11 8 85 90 165 180 80 91 214 239 298 329 l153 163 809 0 808 0 128 -132 c70 -73 202 -218 294 -323 92 -104 177 -198 188 -209 24 -21 71 -19 272 15 215 36 254 57 309 169 144 287 190 823 126 1455 -20 195 -139 1022 -171 1190 -58 301 -79 350 -195 459 -72 68 -196 146 -232 146 -8 0 -19 -12 -25 -27 -5 -16 -122 -345 -260 -733 -436 -1228 -458 -1285 -516 -1348 -53 -59 -28 -57 -681 -60 -622 -3 -703 1 -754 37 -72 52 -152 255 -486 1236 -241 709 -308 888 -335 892 -8 2 -39 -10-67 -26z"/>
</g>
</svg>
